<?xml version="1.0" encoding="UTF-8"?>
<!DOCTYPE svg PUBLIC "-//W3C//DTD SVG 1.1//EN" "http://www.w3.org/Graphics/SVG/1.1/DTD/svg11.dtd">
<!-- Creator: CorelDRAW 2020 (64-Bit) -->
<svg xmlns="http://www.w3.org/2000/svg" xml:space="preserve" width="5.8554mm" height="3.6656mm" version="1.1" style="shape-rendering:geometricPrecision; text-rendering:geometricPrecision; image-rendering:optimizeQuality; fill-rule:evenodd; clip-rule:evenodd"
viewBox="0 0 2.06 1.29"
 xmlns:xlink="http://www.w3.org/1999/xlink"
 xmlns:xodm="http://www.corel.com/coreldraw/odm/2003">
 <defs>
  <style type="text/css">
   <![CDATA[
    .fil0 {fill:#5E5472;fill-rule:nonzero}
   ]]>
  </style>
 </defs>
 <g id="Слой_x0020_1">
  <metadata id="CorelCorpID_0Corel-Layer"/>
  <path class="fil0" d="M0.52 0.32l0.52 0 0 -0.32 1.03 0.65 -1.03 0.65 0 -0.32 -0.52 0 0 -0.65zm-0.31 0l0.21 0 0 0.65 -0.21 0 0 -0.65zm-0.21 0l0.1 0 0 0.65 -0.1 0 0 -0.65zm0.77 0m0.26 -0.16m0.52 0.16m0 0.65m-0.52 0.16m-0.26 -0.16m-0.26 -0.32m-0.21 -0.32m0.1 0.32m-0.1 0.32m-0.1 -0.32m-0.15 -0.32m0.05 0.32m-0.05 0.32m-0.05 -0.32"/>
 </g>
</svg>
